<svg id="Layer_1" data-name="Layer 1" xmlns="http://www.w3.org/2000/svg" viewBox="0 0 58 58"><defs><style>.cls-1{fill:#fff;}.cls-2{fill:#010101;}</style></defs><rect class="cls-1" width="58" height="58"/><path class="cls-2" d="M4,21.35a4,4,0,0,0-4,4v11.3H3.6V25.35a.66.66,0,0,1,.5-.4c.1,0,.1,0,.2.1l9.4,10.3a4.07,4.07,0,0,0,5.7.2,4.16,4.16,0,0,0,1.3-3V21.35H17.1v11.3a.46.46,0,0,1-.5.4.37.37,0,0,1-.3-.1L7,22.65a3.8,3.8,0,0,0-3-1.3m18.5,0v11.2a4,4,0,0,0,4,4H41.6a4.7,4.7,0,0,0,0-9.4H32.1a1.11,1.11,0,0,1-1-1.2,1.17,1.17,0,0,1,1-1h16v11.7h3.6V25H58v-3.6H32.2a4.7,4.7,0,0,0-.4,9.4h9.8a1.11,1.11,0,0,1,1,1.2,1.17,1.17,0,0,1-1,1H26.5c-.2,0-.5-.2-.5-.4h0V21.35Z"/></svg>