<svg id="图层_1" data-name="图层 1" xmlns="http://www.w3.org/2000/svg" viewBox="0 0 58 58"><defs><style>.cls-1{fill:#6a005f;}</style></defs><path class="cls-1" d="M6.74,1a22.88,22.88,0,0,0,11,2.9,20.89,20.89,0,0,0,11.3-2.61A20.87,20.87,0,0,0,40.34,3.9a23.18,23.18,0,0,0,11-2.8c.1,6.56-.1,12.84-.1,19.4s.39,13.23-1.35,18.25a23.49,23.49,0,0,1-3.38,6.37,21.11,21.11,0,0,1-4.82,4.93,39.61,39.61,0,0,1-6.28,3.57c-1.93,1-3.77,1.93-5.6,2.9-.29.19-.58.19-.77.48a24.64,24.64,0,0,0-3.19-1.74,33.43,33.43,0,0,0-3.28-1.64C21.42,53,20.36,52.56,19.3,52a32.7,32.7,0,0,1-3-1.93A24.08,24.08,0,0,1,8,38.66a29.23,29.23,0,0,1-1.26-8.5c-.19-3.09-.09-6.37-.09-9.56C6.84,14,6.74,7.66,6.74,1ZM27.89,3.41C24,5.15,17.85,5.63,12.83,4.67A23.66,23.66,0,0,1,8.58,3.41,1.52,1.52,0,0,0,8,3.22c-.1,6.08.09,12.36.09,18.15,0,3-.19,6.09,0,9a28.56,28.56,0,0,0,1.26,7.92,23.64,23.64,0,0,0,3.09,6.08,21.46,21.46,0,0,0,7.24,6.57c1,.58,2,1,3.09,1.54,2,1,4.15,2,6.18,3,2-1.07,4.15-2,6.18-3,1.06-.48,2.12-1,3.09-1.45a19,19,0,0,0,5.12-4,21.92,21.92,0,0,0,5.11-8.59c1.55-4.74,1.26-10.82,1.26-16.9s0-12.17.1-18.25a1.42,1.42,0,0,0-.58.19,19.14,19.14,0,0,1-4.16,1.36,30.81,30.81,0,0,1-11.49-.2A19.68,19.68,0,0,1,29,2.93a11.55,11.55,0,0,1-1.06.48Z"/><path class="cls-1" d="M29.68,5.25a5.59,5.59,0,0,1,4.24,2.61,2,2,0,0,1,.29.67.31.31,0,0,1-.29.29c-.19,0-.29-.29-.38-.48A5.43,5.43,0,0,0,30,5.83c.09.38.29.77.38,1.16a5.78,5.78,0,0,1,.39,1.15c.09.1,0,.2,0,.29.29,0,.67,0,.58.29s-1.35.1-1.84.2a5,5,0,0,0,0,1.16c.29.19,1.55-.1,1.74.09a.36.36,0,0,1,.1.29c-.1.48-1.35.1-1.84.2-.09.38.1,1-.29,1s-.29-.48-.29-1c-.48-.2-1.73.28-1.83-.2-.1-.67,1.35-.19,1.83-.38a2.27,2.27,0,0,0,0-1.16c-.38-.2-1.73.19-1.83-.2s.29-.38.58-.38a.15.15,0,0,0,0-.2c.29-.77.58-1.64.87-2.31a4.7,4.7,0,0,0-4,3.28,6.07,6.07,0,0,0,1-.19c.49-.1,1.45-.29,1.16.38-.38.1-.77.1-1.25.2s-.77.19-1.06.29c-.1.09-.1.29-.1.48.39-.1.67-.19,1.16-.29.29-.1,1.35-.29,1.25.19-.09.2-.29.2-.58.2a4.69,4.69,0,0,0-1.83.48v.38c.39-.09.67-.19,1.16-.29.29,0,1.06-.28,1.16.1s-.78.39-1.16.39a3.55,3.55,0,0,0-1,.29c.1.19.1.58-.09.58-.49.09-.58-1.07-.58-1.45A9.56,9.56,0,0,1,24,9a5.63,5.63,0,0,1,4.73-3.95c.19-.29.19-.78.48-.78.39.29.29.78.49,1Zm-.1,1.16c-.1-.2-.19-.68-.39-.58-.38.87-.67,1.83-1.06,2.7h.77c-.19-.77.78-.87.58,0h.78c-.2-.67-.49-1.45-.68-2.12ZM18,7.37c.1.1,0,.2,0,.29.39-.09.78.2.78.39s-.2.48-.2.77c.58.39.77,1.16,1.35,1.45a3.78,3.78,0,0,1,.39,2.12c-.1.58-.68.68-.58,1.36.1.28.29,1,.48,1.06s.39,0,.49.09a.65.65,0,0,1,0,.58c-.49.1-.68.58-1.16.39a1.78,1.78,0,0,1-.68-.48.62.62,0,0,1-.09-.39c-.1-.29-.29-.39-.49-.68-.38.1-1.45-.09-1.25.49.09.29.87.09.67.77a1.9,1.9,0,0,1-1.06.58h-.29c-.09,0-.19-.1-.29-.1s-.58.1-.77,0a1.15,1.15,0,0,1-.68-.48c-.09-.1-.29-.29-.29-.39-.09-.29,0-.48-.29-.58-.09-.09-.29,0-.38-.09-.29-.1-.58-.29-.77-.1s.19.39.29.68a1.74,1.74,0,0,1,.09.77,2,2,0,0,1-.48.39c-.29.09-.68-.2-1.06-.29s-.68-.1-.68-.29a.52.52,0,0,1,.19-.39c.1-.19-.09-.29.1-.48-.19-.29-.1-.68-.1-1.26a5.71,5.71,0,0,1,.1-1.35.71.71,0,0,0,.1-.39,2.49,2.49,0,0,1,.77-.67,2.71,2.71,0,0,1,2-.29c.19,0,.29.19.48.19a3.75,3.75,0,0,0,1.06,0c.1-.1.2-.1.2-.19,0-.48-.29-.68-.39-1.06.1-.49-.1-1.16.1-1.65.09-.09.29-.57.38-.67s.39-.29.48-.39a1.62,1.62,0,0,1,1,.2,1.79,1.79,0,0,1,.48.09ZM16.54,8.43c.2.1.29-.19.39-.38-.1-.1,0-.29-.19-.29.09.29-.1.48-.2.67Zm-.86-.09h.19c.1-.2.1-.29.19-.48C15.77,7.86,15.68,8.14,15.68,8.34Zm1.54.09c-.19.2-.68.29-.48.68h.09c.29-.1.39-.39.58-.58s.49-.19.49-.58A.66.66,0,0,0,17.22,8.43Zm0,1.07h0c.1.09.19,0,.29,0s.29.09.48.09a.19.19,0,0,0-.09-.29C17.7,9.59,17.12,9.11,17.22,9.5Zm1.45-.2a.21.21,0,0,0-.19.2.37.37,0,0,0,.48.29S18.86,9.3,18.67,9.3Zm-2,.39a1,1,0,0,0-.38.48c.19.1.19-.19.28-.19s.2.29.29.39.29,0,.29.09-.19.1-.29.2-.38.28-.57.38c-.39.19-.87.48-.29.77a.14.14,0,0,0,0-.19c.09-.1.48-.48.57-.48s.2.09.29,0c.29,0,.29-.29.49-.39a3.84,3.84,0,0,0,.48.1c.19.09.1.48.39.58.09-.2,0-.39.19-.58,0-.19-.19-.19-.19-.39s.19-.09.19-.19c.19.19.19.58.39.77a.58.58,0,0,0,.09-.77c-.09-.19-.38-.19-.48-.39a3.57,3.57,0,0,0-1.45.29c-.1-.09-.1-.38-.29-.48Zm2.7,1.45c.2-.1.1-.48-.09-.48C19.15,10.85,19.15,11.14,19.34,11.14Zm-2.22.29c.1.09.29.09.29.19-.09.29.2.39.2.68a.22.22,0,0,1-.39-.1.2.2,0,0,0-.19.19c.58,0,.29.68-.1.78-.1.09-.29,0-.39,0s-.28.19-.38.19-.39,0-.58.1c-.1.28,0,.67.19.57s.2-.38.39-.48c.29.1.29-.19.38-.19h.29c.29-.1.39-.48.58-.77.58.09.68-.39.68-.78-.29.1-.68.1-.68-.19s.2-.29.2-.48-.49,0-.49.29Zm-4.44,0c-.09,0-.09-.1-.19-.1,0,.19-.19.19-.19.29s.19.1.19.29c.39,0,.48-.29.77-.29,0-.48-.29-.29-.58-.19Zm1.16-.1c-.1.1,0,.39.1.39.29-.1.19-.49-.1-.39Zm1.26,1c.09-.1.09-.39-.1-.39S14.9,12.3,15.1,12.3Zm-3.87.19a.59.59,0,0,0,.58,0,.91.91,0,0,1-.09-.48,1.14,1.14,0,0,0-.49.48Zm4,.1c.2,0,.58.09.68-.1C15.77,12.3,15.19,12.3,15.19,12.59Zm-2.7.48c-.1,0-.1-.1-.19-.1s-.1.2-.29.2-.1-.1-.2-.1-.09.1-.09.19c.09-.09.19,0,.29,0s0-.09.09-.09a.74.74,0,0,1-.67.77c0,.19-.2.29-.29.38-.1.39,0,.87.48.87V14.9a.54.54,0,0,1-.19-.48.34.34,0,0,1,.29-.1c.19-.19.29-.38.48-.58-.1-.28.19-.48.29-.19,0,.1-.1.19.1.19s0-.09,0-.19.38-.19.48-.38c-.19-.39-.39-.2-.58-.1Zm-1.16.48a.59.59,0,0,0,.1-.58C11.23,13,11.14,13.46,11.33,13.55Zm3.09,0c0,.1.19.1.29,0v-.09c0-.1-.1-.1-.19-.1C14.61,13.55,14.42,13.46,14.42,13.55Zm2,.29c-.1.1-.19.1-.19.19s.09.49-.1.49c-.19-.2-.39,0-.58.09s-.19-.09-.29-.09-.1.38.1.38-.1-.29.09-.29.1.2.2.29-.1.58,0,.68c.29-.1,0-.68.38-.77.1.09.1.29.1.48a.49.49,0,0,0,.38.19c.2,0,.58-.09.58-.19s-.29-.1-.38-.19v-.2a.74.74,0,0,1-.2-.87c0-.09.29-.29.1-.38C16.45,13.74,16.45,13.84,16.45,13.84ZM12,15.29h0c.19.1.29.29.38.19a.28.28,0,0,0-.38-.19Zm34.18-.68c-.2-.19-.58.1-.78.1s-.58.1-.67.29,0,.29-.1.39c-.19.48-.67.58-1,.87-.2.09-.49-.1-.78,0s-.29.19-.58.09a2,2,0,0,1-1.15-.58c-.2-.48.29-.58.67-.67.1-.49-.29-.39-.67-.49-.2,0-.39-.09-.58-.09s-.39.38-.49.67a.62.62,0,0,0-.09.39,1.5,1.5,0,0,1-1,.58c-.38,0-.48-.39-.87-.39a.65.65,0,0,1,0-.58c.1-.09.39-.09.58-.19a1.88,1.88,0,0,0,.39-1.54c-.1-.29-.48-.58-.58-.78V12.3a2.64,2.64,0,0,1,.38-1.74c.2-.19.39-.29.58-.48.29-.39.39-.87.87-1.07a2.72,2.72,0,0,0-.19-.87A1,1,0,0,1,41,7.76c.1-.1-.09-.19,0-.29a.8.8,0,0,1,.68,0,2.84,2.84,0,0,1,.77-.19c.48-.1.77.38,1,.77a1.46,1.46,0,0,1,.29.77V10c-.1.48-.78,1-.2,1.35a3.75,3.75,0,0,0,1.06,0c.2,0,.39-.19.49-.19a3.75,3.75,0,0,1,1.06,0,3.87,3.87,0,0,1,1.74,1c0,.29.19.49.29.87a5.64,5.64,0,0,1,0,1.74c0,.29-.1.48-.1.87,0,.19.19.29.19.39,0,.29-.38.29-.77.38-.58.2-1.25.48-1.54-.09a1.82,1.82,0,0,1,.09-.78c0-.48.39-.58.2-.87ZM42.32,8.43c0-.19-.19-.19-.19-.29s.1-.28-.1-.38C41.74,8,42,8.53,42.32,8.43ZM43,8.34c.1,0,.19,0,.19-.1s-.09-.38-.29-.38a4.29,4.29,0,0,0,.1.48Zm-1.83-.29c0,.38.38.38.57.67s.2.39.39.49c.29-.29-.19-.68-.48-.78C41.55,8.24,41.46,8,41.17,8.05ZM40.39,9.5a.21.21,0,0,0-.19-.2c-.1,0-.29.49-.29.58s.48-.29.48-.38Zm1-.1c-.1,0-.19-.1-.29-.1s-.19.29-.1.29a.6.6,0,0,1,.68,0c.19-.09.09-.29-.1-.29s-.09.1-.19.1Zm1,.29c-.19.1-.29.39-.48.58A3.11,3.11,0,0,0,40.49,10c-.1.19-.48.19-.48.48a.81.81,0,0,0,.09.68c.29-.1.29-1.16.68-.58,0,.1-.19.19-.19.38.19.1.09.29.19.49.29,0,.19-.39.39-.49a.77.77,0,0,0,.48-.09c.19.19.38.48.77.29.19.19.58.29.58.67a.31.31,0,0,0,.29-.29c0-.19-.48-.38-.77-.58-.1-.09-.29-.19-.39-.28s-.39-.1-.39-.2.2,0,.2,0c.19-.09.19-.38.38-.38s.2.19.29.19a.82.82,0,0,0-.29-.58ZM39.43,11c.19.29.38-.1.19-.38A.37.37,0,0,0,39.43,11Zm1.74.19c.09.2.19.29.19.49s-.48.19-.77.19c.09.29.09.87.67.77.2.29.29.58.68.78.38-.2.38.29.77.19.19.09.19.48.39.48s.29-.39.19-.67c-.19-.1-.39,0-.58-.1s-.19-.19-.29-.19-.29,0-.48-.1a.81.81,0,0,1-.39-.68c.1-.09.29-.09.29-.19s-.1-.1-.19-.1-.29.29-.48.1c.09-.19.29-.29.19-.68.1-.09.19-.09.29-.19s-.29-.29-.48-.1Zm4.34.29c.29.1.48.29.77.39,0-.1.2-.1.29-.29-.09-.1-.19-.1-.19-.29-.19,0-.1.1-.19.1-.29-.1-.58-.29-.68.09Zm-.58.2a.71.71,0,0,0,.19-.39C44.74,11.23,44.64,11.62,44.93,11.72Zm-1.06.09c-.1.1-.19.29-.1.39S44.06,11.91,43.87,11.81Zm3.09.68a.78.78,0,0,0,.67,0c-.09-.29-.29-.39-.57-.48A.7.7,0,0,1,47,12.49Zm-4,.1a1.13,1.13,0,0,0,.58.09C43.68,12.3,43.1,12.3,43,12.59Zm2.8.48c.1.19.29.19.48.29,0,.1-.09.1,0,.19s.1-.09.1-.19c.39-.29.29.38.48.58s.2.19.29.29a.37.37,0,0,1,.29.09c.19.39-.29.58-.1.87.58.1.58-.87.2-1.06,0-.1,0-.1-.1-.19a.92.92,0,0,1-.67-.77c.09.19.19,0,.38.09a.2.2,0,0,0-.19-.19c-.1,0-.1.1-.19.1l-.2-.2c-.09,0-.09.1-.19.1s-.48-.29-.58,0Zm1.74.48a.47.47,0,0,0-.1-.58C47.34,13.17,47.34,13.46,47.54,13.55Zm-3.38,0a.35.35,0,0,0,.29.1v-.1C44.35,13.55,44.16,13.36,44.16,13.55Zm-1.64.58c-.1.19,0,.39,0,.68-.1.09-.29.19-.2.38-.09.1-.38.1-.48.29a.85.85,0,0,0,1.06-.09c0-.2,0-.39.2-.49.29.1,0,.68.29.78a.88.88,0,0,0,0-.68c.09-.1.09-.19.29-.29,0,.1-.1.29.09.29a.29.29,0,0,0,0-.39c-.19-.09-.19.1-.38.1-.1-.19-.29-.29-.58-.1-.1-.19,0-.29-.1-.48s-.19-.29-.29-.38c-.19.09,0,.28.1.38Zm4,1.35c.19-.09.29-.19.38-.19A.24.24,0,0,0,46.48,15.48Z"/><path class="cls-1" d="M33.92,9.21c.2,0,.2-.2.39-.2s.39.87.39,1.26c.09.67,0,2.61-.68,2,0-.2,0-.29.1-.39a3.77,3.77,0,0,0-1.64-.39c-.29,0-.68,0-.58-.38s.87-.1,1.16-.1c.48.1.77.19,1.15.29.1-.1,0-.29.1-.39a4.65,4.65,0,0,0-1.83-.48c-.29,0-.58,0-.58-.29,0-.09.09-.19.19-.29a7.72,7.72,0,0,1,2.22.39c.19-.58-.58-.68-1.06-.77s-.87-.1-1.26-.2c-.19-.09-.19-.48.1-.48a5.94,5.94,0,0,1,1.83.39ZM30.26,16c-.58-.68,1.15-.58,1.35-1a2.28,2.28,0,0,0-.87-.19,3.2,3.2,0,0,0-1-.1c0,.48.2,1.26-.29,1.45s-1.45,0-1.54-.29c-.1-.58.87-.19,1.25-.29a1.31,1.31,0,0,0-.09-.87,6.68,6.68,0,0,0-2.42.29c.2.29.87.29.87.58.1.68-1.16,0-1.25-.1A5.71,5.71,0,0,1,24.66,14a3.48,3.48,0,0,1-.58-1c0-.29.58-.39,1-.48a15.55,15.55,0,0,1,7.05-.29c.29.09.68.19,1.06.29s.87.19,1,.48-.49,1-.68,1.16a4.27,4.27,0,0,1-1.93,1.54A11.76,11.76,0,0,1,30.26,16Zm-5.32-2.9a6.31,6.31,0,0,0,1.26,1.54c.39-.09.68-.19,1.16-.29-.19-.19-.39-.19-.58-.38s-.48-.29-.48-.58.58-.39,1-.48a9.12,9.12,0,0,1,4,0c.39.09,1,.19,1,.48s-.29.38-.39.48-.39.19-.58.39a4,4,0,0,1,1.16.29A3.32,3.32,0,0,0,33.63,13a14.8,14.8,0,0,0-8.69.1Zm2.23.48a4,4,0,0,0,4.15,0A7.69,7.69,0,0,0,27.17,13.55ZM13.36,30c0-.1,0-.1-.1-.2a.36.36,0,0,0-.09-.19c0-.1-.1-.1-.2-.1H10.08v-.19l2.8-2.12H10.56a.32.32,0,0,0-.19.09.35.35,0,0,0-.1.2.35.35,0,0,1-.1.19H10V26.2h.19c0,.1,0,.1.1.19a.35.35,0,0,0,.1.2c.09.09.09.09.19.09h2.22c.1,0,.19,0,.19-.09s.1-.1.2-.1a.31.31,0,0,0,.09-.19c0-.1.1-.2.1-.29h.19v1L10.94,28.9h2.13a.32.32,0,0,0,.19-.09c0-.1.1-.1.1-.2a.35.35,0,0,1,.1-.19h.19v1.45h-.29Zm-3,4-.2-1.44h.2c0,.09.09.19.09.29s.1.09.1.09h.19l.77-.38-.09-1.26c-.1,0-.2-.1-.29-.1a.36.36,0,0,1-.2-.09h-.28c-.1,0-.1.09-.1.19v.39h-.19l-.1-1.26h.19a.28.28,0,0,0,.1.19c0,.1.1.1.1.2l.19.19c.09,0,.09.1.19.1.48.09,1,.29,1.55.38a11.6,11.6,0,0,0,1.54.39V32l-2.9,1.45c-.09,0-.09.1-.19.1a.31.31,0,0,0-.1.19v.39l-.57-.2Zm1.25-1.44,1.26-.68-1.36-.39Zm2.8,5.11a.3.3,0,0,0-.1-.19.31.31,0,0,1-.09-.19c-.1-.1-.1-.1-.29-.1s-.29,0-.39.1L11,37.79l-.1-.2,2.32-2.7-1.74.39c-.19,0-.29.09-.38.09s-.2.1-.2.2-.09.09-.09.29v.19l-.19.09-.29-1.35h.19c0,.1.1.1.1.2a.29.29,0,0,1,.09.19c.1.1.1.1.19.1a1.05,1.05,0,0,0,.49-.1l1.64-.39a.32.32,0,0,0,.19-.09l.1-.1a.35.35,0,0,0,.1-.29V34h.19l.19,1L11.72,37.5l1.64-.39a1,1,0,0,1,.48-.1c.1-.09.19-.09.19-.19v-.39l.2-.09.29,1.35-.1-.1Zm1.16,2-.1-.1-.09-.09a.1.1,0,0,1-.1-.1c-.1,0-.1,0-.19.1l-1.74,1.06a.35.35,0,0,1-.29.1h-.39a.71.71,0,0,1-.38-.2A1.11,1.11,0,0,1,12,40a.84.84,0,0,1-.1-.68.93.93,0,0,1,.39-.48.34.34,0,0,1,.29-.1.21.21,0,0,1,.19.19c0,.1.1.2,0,.2a.35.35,0,0,1-.1.19c-.09,0-.09.1-.19.1H12c0,.09-.1.09-.1.19a.35.35,0,0,0,.1.29l.19.19c.1,0,.19.1.29,0a.37.37,0,0,0,.29-.09c.1-.1.19-.1.39-.2l1.54-.87a.09.09,0,0,0,.1-.09v-.19c0-.1,0-.1-.1-.2s-.1-.09-.1-.19l.2-.1.77,1.35v.1Zm-1.26,4-1-1.26.1-.09a.32.32,0,0,1,.09.19l.1.1h.09c.1,0,.1,0,.2-.1l2-1.54c.09,0,.09-.1.09-.1v-.19c0-.1,0-.1-.09-.2s-.1-.09-.1-.19l.1-.1,1,1.26-.1.1-.09-.1c-.1-.1-.1-.1-.2-.1s-.09-.09-.19,0-.09,0-.09.1l-2,1.54-.1.1v.19a.31.31,0,0,0,.1.2c.09.09.09.09.09.19Zm6,1.25a.36.36,0,0,0-.19-.09.31.31,0,0,0-.2-.1.36.36,0,0,0-.29.1l-.29.29-1.73,1.83-.2-.19.39-3.48-1.26,1.26a1.24,1.24,0,0,1-.28.38.36.36,0,0,0-.1.29c0,.1,0,.1.1.2a.29.29,0,0,1,.09.19l-.09.1-1.07-1,.1-.09a.36.36,0,0,0,.19.09.31.31,0,0,0,.2.1c.09,0,.19,0,.19-.1a1.51,1.51,0,0,1,.39-.29l1.15-1.25c.1-.1.1-.1.1-.2s.1-.09,0-.19a.35.35,0,0,0-.1-.29.31.31,0,0,1-.09-.19l.09-.1.68.68-.39,3.28,1.16-1.16a1.43,1.43,0,0,1,.29-.38.31.31,0,0,0,.1-.2c0-.09-.1-.09-.1-.19a.31.31,0,0,1-.09-.19l.09-.1,1.06,1Zm1.93,3.48a.28.28,0,0,1-.19-.1c-.1,0-.1-.09-.19-.09h-.2l-.09.09-.2.2a1.12,1.12,0,0,1-.19.29l-.1.09a1.7,1.7,0,0,1-.67-.19l-.58-.29c-.2-.1-.29-.29-.49-.48l-.28-.58v-.68c.09-.19.09-.48.28-.67a2.33,2.33,0,0,1,.49-.58A3.61,3.61,0,0,1,20.5,45a.81.81,0,0,1,.68,0c.19.09.48.09.68.29a.74.74,0,0,1,.38.38.51.51,0,0,1,.19.39l.2-.1.19.1-.68,1.06L22,47.06a.57.57,0,0,0,.1-.39c0-.1.09-.29,0-.39S22,46,22,45.9a4,4,0,0,0-.29-.29c-.19-.1-.29-.2-.48-.2a.84.84,0,0,0-.48.1c-.2.1-.29.19-.49.29s-.29.29-.48.48l-.29.58a1.21,1.21,0,0,0-.1.58,3.84,3.84,0,0,0,.1.48.74.74,0,0,0,.39.39c.09.1.19.1.38.19s.2.1.29,0l.2-.19c.09-.1.09-.1.09-.19l.1-.2c.1-.09.1-.09.1-.19v-.19c0-.1-.1-.1-.2-.19s-.09-.1-.19-.1l.1-.19,1.25.86.29.39Zm8.69.58h-.19c-.1,0-.2,0-.2.1s-.09.09-.09.19v1.93c0,.19,0,.39-.1.48a1.16,1.16,0,0,1-.29.39.69.69,0,0,1-.38.19.73.73,0,0,1-.39.1,1.19,1.19,0,0,1-.58-.1c-.19-.09-.29-.09-.39-.19s-.19-.19-.19-.29a.57.57,0,0,1-.1-.39V49.08L27.94,49a.35.35,0,0,0-.2-.1h-.19V48.7H29v.19h-.39c-.09,0-.09.1-.09.1V51.4c0,.1.09.19.09.29s.2.19.29.19a.72.72,0,0,0,.49.1.84.84,0,0,0,.48-.1c.1-.09.19-.09.29-.19s.1-.19.19-.29V49.18a.32.32,0,0,0-.09-.19.35.35,0,0,1-.2-.1h-.19V48.7h1.45l-.39.19Zm4-1.74a.35.35,0,0,1-.19.1l-.2.19v.29c0,.1.1.29.1.39l1.06,2.31-.19.1-3.09-1.74.68,1.64c.09.2.19.29.19.39s.09.19.19.19h.29c.1,0,.19,0,.19-.09l.1.19-1.25.58-.1-.19c.1,0,.1-.1.19-.1s.1-.1.2-.1V51c0-.09-.1-.19-.2-.48L32.19,49c0-.1-.1-.1-.1-.2s-.1-.09-.19-.09h-.29a.36.36,0,0,0-.29.09l-.1-.19.87-.39,2.8,1.65-.68-1.55c-.09-.19-.19-.29-.19-.39s-.1-.19-.19-.19h-.2c-.09,0-.19,0-.19.1l-.1-.2,1.26-.57.29.09Zm3.48,2L37,49.86l-.09-.2a.32.32,0,0,1,.19-.09l.1-.1a.09.09,0,0,1,.09-.1v-.19L36.14,47a.09.09,0,0,0-.09-.1h-.39c-.09,0-.09,0-.19.1l-.1-.19,1.35-.68.1.19c-.1,0-.1.1-.19.1s-.1.1-.2.1-.09.09-.09.19v.1L37.4,49c0,.09.1.09.1.09h.38c.1,0,.1,0,.2-.09l.29.19Zm1.73-5.41-.09.1c0,.1-.1.1-.1.19v.39c.1.29.19.67.39,1.25s.38,1.16.58,1.74l-.2.1c-.58-.29-1.16-.68-1.64-1A12.43,12.43,0,0,1,38,45.9c-.1,0-.1-.1-.19-.1h-.2c-.09,0-.09,0-.19.1a.09.09,0,0,0-.1.09l-.09-.09L38.37,45l.09.09-.19.2c-.1.09-.1.09,0,.19l.1.1h.09a4.6,4.6,0,0,1,.68.38c.29.2.77.49,1.45.87-.1-.29-.2-.67-.29-1.06a5.1,5.1,0,0,0-.29-.87.71.71,0,0,1-.1-.29.1.1,0,0,0-.1-.1s-.09-.09-.09,0h-.2c-.09,0-.09.1-.19.1a.1.1,0,0,0-.1.1l-.09-.1,1.06-.77-.1-.1ZM44,42.61l.77.68L42.9,45.51l-.09-.1a.32.32,0,0,0,.09-.19c0-.1.1-.1.1-.19v-.1a.1.1,0,0,0-.1-.1L41,43.19l-.09-.09h-.2c-.09,0-.09.09-.19.09s-.1.1-.19.1l-.1-.1,1.74-2,.67.58-.09.09a.62.62,0,0,0-.39-.09c-.19,0-.29,0-.39.09l-.09.1-.19.19-.29.39,1.06.87.29-.29c.09-.1.09-.2.19-.2s0-.09,0-.19,0-.1-.1-.19-.09-.1-.09-.2l.09-.09,1.07.87-.1.09a.32.32,0,0,1-.19-.09.35.35,0,0,1-.2-.1c-.09,0-.19,0-.19.1s-.1.09-.19.19l-.29.29.77.68c.1.09.19.09.19.19h.2c.09,0,.09-.1.19-.1l.19-.19a.35.35,0,0,0,.1-.19c.1-.1.1-.1.1-.2s.09-.09.09-.19v-.19c0-.1-.09-.29-.09-.39s-.1-.29-.2-.29l-.09-.1Zm2.89-3.18-.48.77c-.39,0-.68.1-1,.1s-.58.09-.87.09l-.19.29,1,.49c.09,0,.09.09.19.09s.1,0,.19-.09l.1-.1c.1-.1.1-.1.1-.19l.19.09-.68,1.26-.19-.1a.28.28,0,0,1,.1-.19c0-.1,0-.1.09-.1v-.09l-.09-.1L43.1,40.49l-.2-.1c-.09,0-.09,0-.19.1l-.1.1-.09.09-.2-.09.78-1.45a1.8,1.8,0,0,0,.19-.29l.29-.29c.1-.1.19-.1.39-.1a.55.55,0,0,1,.38.1c.1.1.19.19.29.19s.1.2.19.29v.29a.79.79,0,0,1-.09.39c.29,0,.48-.1.67-.1s.39-.1.68-.1a.37.37,0,0,0,.29-.09c.1,0,.1-.1.19-.1a.09.09,0,0,0,.1-.09.1.1,0,0,1,.1-.1l.09.29ZM44,39.23a1.33,1.33,0,0,0-.58-.09.73.73,0,0,0-.39.38l-.19.39,1.35.68.19-.29a1.21,1.21,0,0,0,.1-.58L44,39.23Zm1.93-2.8a.36.36,0,0,1,.29-.09h.29a1.65,1.65,0,0,1,.67.48,1.39,1.39,0,0,1,.1.87.79.79,0,0,1-.19.39c-.1.19-.2.29-.29.29l.19.19-.1.19-1.16-.29.1-.19c.19,0,.29,0,.39-.1s.29-.09.38-.09.2-.2.29-.2a.48.48,0,0,0,.2-.38v-.29c0-.1,0-.2-.1-.2s-.1-.09-.19-.19a.35.35,0,0,1-.2-.1h-.38c-.1.1-.29.2-.39.29s-.19.2-.19.29-.2.2-.2.29a.93.93,0,0,1-.48.39.6.6,0,0,1-.58,0c-.09,0-.19-.1-.38-.19s-.2-.2-.2-.29-.09-.2-.09-.39v-.39c.09-.19.09-.29.19-.38l.29-.29L44,35.86l.09-.2,1.16.29-.1.2h-.38a.62.62,0,0,0-.39.09c-.09.1-.19.1-.29.19s-.09.2-.19.29,0,.29.1.39l.29.29h.38c.1,0,.19-.1.29-.19s.19-.2.19-.29.2-.2.2-.29a.21.21,0,0,1,.19-.2c.29.1.29,0,.39,0ZM48,34.12l-.19,1.54h-.2v-.38c0-.1,0-.1-.09-.1a.35.35,0,0,0-.2-.1l-2.51-.29h-.09l-.1.1c0,.1-.1.1-.1.19s-.09.1-.09.2h-.19l.19-1.55h.19v.39c0,.09,0,.09.1.09l.09.1,2.51.39h.2c.09,0,.09-.1.09-.1a.35.35,0,0,0,.1-.19.35.35,0,0,1,.1-.2l.19-.09ZM45.8,30.06v.2c-.1,0-.1,0-.19.09a.35.35,0,0,0-.2.1l-.19.19c-.1.1-.1.1-.1.19v.58l2.8.1h.2c.09,0,.09-.1.09-.1a.3.3,0,0,1,.1-.19V31h.19l-.09,1.64h-.2v-.39a.09.09,0,0,0-.09-.09.31.31,0,0,1-.2-.1l-2.8-.1v.58c0,.1,0,.1.1.2l.19.19c.1.1.2.1.2.19a.35.35,0,0,1,.19.1v.19h-1l.1-3,.87-.39Zm-.68-3.86v.1c0,.09.1.09.1.09a.1.1,0,0,0,.1.1.31.31,0,0,0,.19.1c.19.09.39.29.58.38a7.12,7.12,0,0,1,.68.39.34.34,0,0,0,.29.1h1.15l.1-.1a.28.28,0,0,1,.1-.19V27h.19v1.64h-.19v-.38a.1.1,0,0,0-.1-.1H47.06a.35.35,0,0,0-.2.1l-.58.29-.58.29c-.09.09-.19.09-.19.19a.1.1,0,0,0-.1.1.32.32,0,0,0-.09.19v.19h-.2V28h.2v.39a.09.09,0,0,0,.09.1h.2c.09,0,.09-.1.19-.1s.1-.1.19-.1.29-.19.39-.19a3.11,3.11,0,0,1,.58-.29,3.78,3.78,0,0,0-1-.58l-.38-.19h-.1a.1.1,0,0,1-.1.1v.38h-.19V26.39l-.1-.19ZM27.94,40.59a.46.46,0,0,0-.29.19.49.49,0,0,0-.19.39c0,.19.09.29.09.38a.35.35,0,0,0,.29.1c.1,0,.19-.1.29-.1s.1-.19.1-.38,0-.29-.1-.39-.1-.19-.19-.19Zm2.12,0c-.09,0-.19.09-.29.19a1.31,1.31,0,0,0-.19.77,4.78,4.78,0,0,0,.1.77c.09.1.19.2.29.2s.19-.1.29-.2.09-.38.09-.77a5.72,5.72,0,0,0-.09-.77c.09-.19,0-.19-.2-.19Z"/><path class="cls-1" d="M43,17.8H15.39a.1.1,0,0,1-.1.1V28.61a22.25,22.25,0,0,0,1.64,9.18,14.43,14.43,0,0,0,5,5.69c2.13,1.55,4.73,2.32,7.24,3.58,2.42-1.26,5.12-2,7.15-3.58a13.63,13.63,0,0,0,5-5.69A23.65,23.65,0,0,0,43,28.61c.1-3.67.1-7.33,0-10.81ZM21.76,33.44A21.52,21.52,0,0,0,27,30a12.85,12.85,0,0,1-2.6.29,1.36,1.36,0,0,1,.57-.49c1.26-1.16,2.61-2.22,3.29-4.05a4.59,4.59,0,0,1-1.64.29,14.55,14.55,0,0,0,2.7-5.6h.1a13.14,13.14,0,0,0,2.7,5.6,5.41,5.41,0,0,1-1.64-.29c0,.29.19.48.29.77a13.3,13.3,0,0,0,2.41,2.8,5.6,5.6,0,0,1,1.06,1.06,5.74,5.74,0,0,1-2.51-.29A6.75,6.75,0,0,0,33,31.12a26.66,26.66,0,0,0,4,2.42c.09.09.29.09.29.29a8.6,8.6,0,0,1-3.77-.29c-1.54-.58-3-.58-4,.48-1.16-1-2.42-1-4.35-.48a9.39,9.39,0,0,1-3.67.38c.1-.38.29-.38.39-.48ZM26,42.61h-.29V40.78c-.1.1-.2.1-.29.19s-.2.1-.29.2v-.29a1.43,1.43,0,0,0,.38-.29l.29-.29H26v2.31Zm2.6-.48a1.27,1.27,0,0,1-.29.39.75.75,0,0,1-.48.19c-.19,0-.29-.1-.48-.19a.51.51,0,0,1-.19-.39h.29c0,.1.09.19.19.29a.34.34,0,0,0,.29.1c.09,0,.19,0,.19-.1s.1-.1.19-.19a.36.36,0,0,0,.1-.29c0-.1.1-.19.1-.39v-.09c-.1.09-.1.19-.2.19s-.19.09-.29.09a.73.73,0,0,1-.48-.19,1.08,1.08,0,0,1-.19-.58,1.52,1.52,0,0,1,.19-.58A.53.53,0,0,1,28,40.2c.2,0,.29,0,.39.1a1.25,1.25,0,0,1,.29.38,1.42,1.42,0,0,1,.1.68,4.15,4.15,0,0,0-.2.77Zm2.13,0c-.1.19-.1.29-.29.39a.79.79,0,0,1-.39.19.87.87,0,0,1-.58-.29c-.19-.19-.19-.48-.19-1a1.4,1.4,0,0,1,.1-.68,1.27,1.27,0,0,1,.29-.39.76.76,0,0,1,.38-.19.34.34,0,0,1,.29.1c.1.09.19.09.19.19s.1.19.2.39a3.51,3.51,0,0,1,.09.58,1.32,1.32,0,0,1-.09.67Zm2.32.48H31.51v-.19c0-.1.1-.19.19-.29l.39-.39a1.89,1.89,0,0,0,.48-.48c.1-.09.1-.19.1-.38s-.1-.2-.1-.29a.34.34,0,0,0-.29-.1,1,1,0,0,0-.29.1.36.36,0,0,0-.09.29h-.29a.73.73,0,0,1,.19-.49.86.86,0,0,1,.58-.19,1.47,1.47,0,0,1,.58.19c.19.1.19.29.19.49a.38.38,0,0,1-.09.29c0,.09-.1.19-.2.29a2.55,2.55,0,0,1-.48.38l-.29.29c-.1.1-.1.1-.1.19h1.16l-.09.29Zm-2.42-6.47.1.58H28l.1-.58h-8.4l1.06-1.25a21.22,21.22,0,0,0,4.06-.77,4.79,4.79,0,0,1,4.63.38c1.35-1.16,3.09-.87,4.64-.29a14.82,14.82,0,0,0,3.76.68l1,1.35-8.21-.1Z"/></svg>