<?xml version="1.0" encoding="UTF-8" standalone="no"?>
<!-- Created with Inkscape (http://www.inkscape.org/) -->

<svg
   version="1.1"
   id="svg2"
   width="486.66666"
   height="388.01334"
   viewBox="0 0 486.66666 388.01334"
   sodipodi:docname="university-of-california-berkeley-athletic-seeklogo.eps"
   xmlns:inkscape="http://www.inkscape.org/namespaces/inkscape"
   xmlns:sodipodi="http://sodipodi.sourceforge.net/DTD/sodipodi-0.dtd"
   xmlns="http://www.w3.org/2000/svg"
   xmlns:svg="http://www.w3.org/2000/svg">
  <defs
     id="defs6" />
  <sodipodi:namedview
     id="namedview4"
     pagecolor="#ffffff"
     bordercolor="#000000"
     borderopacity="0.25"
     inkscape:showpageshadow="2"
     inkscape:pageopacity="0.0"
     inkscape:pagecheckerboard="0"
     inkscape:deskcolor="#d1d1d1" />
  <g
     id="g8"
     inkscape:groupmode="layer"
     inkscape:label="ink_ext_XXXXXX"
     transform="matrix(1.3333333,0,0,-1.3333333,0,388.01333)">
    <g
       id="g10"
       transform="scale(0.1)">
      <path
         d="m 3457.63,2365.14 c -23.35,12.88 -85.67,-33.07 -85.67,-33.07 -119.34,-94.77 -209.04,-212.18 -286.34,-347.45 -204.24,-357.42 -185.4,-638.26 -185.4,-638.26 0,0 106.54,121.29 131.68,161.02 34.27,54.17 163.22,235.5 235.77,363.34 77.79,137.07 167.18,326.79 189.34,392.49 0,0 35.88,82.49 0.62,101.93 z M 1950.13,1518.7 c -59.26,-1.82 -200.59,-74.77 -313.6,-283.8 -26.37,-48.78 -108.13,-251.681 -63.83,-352.959 13.38,-30.621 37.59,-51.621 68.16,-59.082 7.9,-1.949 16.05,-2.918 24.17,-2.918 99.69,-0.019 169.51,139.457 238.09,294.879 5.36,12.11 10.17,23.02 14.38,32.17 17.54,38.32 91.58,209.18 106.2,273.53 9.11,40.12 12.14,100.81 -73.57,98.18 z M 57.2383,57.2305 c 6.4531,21.2383 23.2461,53.7815 39.957,75.2185 32.2107,41.281 84.7817,86.031 156.2387,133 110.195,72.43 213.242,118.27 344.554,153.242 190.485,50.739 392.387,54.989 566.672,54.989 l 9.3,-0.008 c 231.96,-0.211 727.95,-29.453 1090.09,-50.813 190.06,-11.179 340.18,-20.039 392.47,-21.097 l 9.35,-0.231 c 15.3,-0.39 40.9,-1.062 71.59,-1.062 220.99,0 296.45,34.601 330.53,54.16 37.09,21.281 75.99,51.672 72.95,72.941 -4.43,30.981 -82.06,28.571 -111.13,33.289 -115.63,18.711 -215.3,64.582 -286.92,115.192 -82.07,57.969 -133.76,160.437 -133.76,160.437 l -54.23,-36 C 2356.33,668.66 2192.22,607.262 2038.42,607.25 c -7.92,0 -15.91,0.172 -23.76,0.512 -88.59,3.84 -156.92,39.988 -176.22,72.047 l -35.73,59.339 -52.42,-45.269 c -70.34,-60.77 -168.65,-79.039 -207.66,-84.09 -17.21,-2.23 -34.65,-3.348 -51.84,-3.348 -89.67,0 -171.22,30.149 -229.62,84.911 -8.62,8.07 -40.38,45.339 -46.09,53.648 l -37.34,54.238 -49.64,-43.187 c -17.46,-15.422 -71.84,-49.242 -82.8,-55.16 C 932.172,639.809 807.059,607.52 683.516,607.52 572.184,607.52 465.59,634.859 375.25,686.602 160.797,809.461 128.305,1049.31 138.805,1228.89 c 14.367,245.17 103.711,490.07 265.535,727.88 139.539,205.05 332.066,401.07 556.781,566.88 163.659,120.76 414.069,273.4 677.499,314.78 46.35,7.28 95.6,14.38 143.45,14.38 54.09,0 94.61,-9.04 123.85,-27.68 78.9,-50.23 81.14,-148.82 75.45,-203.13 -20.94,-199.46 -205.32,-440.41 -402.9,-440.42 -36.53,0.03 -69.15,14.25 -87.55,37.99 -14.46,18.66 -18.46,41.09 -11.9,66.64 16.73,65.15 78.12,86.52 177.26,113.95 7.97,2.2 15.87,4.39 23.65,6.61 158.01,44.97 183.42,143.31 176.93,217.88 -4.4,50.65 -40.03,104.77 -126.83,104.77 -81.54,0 -179.3,-47.7 -190.17,-53.13 -215.94,-107.96 -360.72,-286.31 -502.1,-475.04 -291.295,-388.87 -428.1,-761.37 -406.647,-1107.22 9.43,-151.96 114.45,-315.948 267.672,-315.948 51.922,0 103.485,18.777 153.265,55.828 79.92,59.461 125.04,151.399 164.88,232.5 11.03,22.48 21.46,43.73 32.24,63.67 60.24,111.24 131.84,210.83 219.52,292.87 96.75,90.51 198.39,148.35 310.01,184.79 59.58,19.46 113.01,27.81 178.71,26.75 61.95,-1 94.83,-40.12 109.42,-65.65 10.94,21.28 27.96,58.96 34.65,64.43 6.13,5.02 112.62,4.52 145.88,3.04 27.36,-1.22 112,-0.81 122.18,-11.85 12.02,-13.04 -21.88,-83.89 -59.47,-184.61 -17.44,-46.74 -43.1,-103.33 -69.77,-172.89 -10.38,-27.07 -20.97,-54.04 -31.32,-80.47 -84.84,-216.388 -140.88,-359.361 -46.78,-408.029 18.36,-9.5 38.82,-14.313 60.83,-14.313 67.28,0 134.73,45.133 183.98,78.082 5.76,3.84 11.19,7.481 16.24,10.77 57.65,37.57 90.42,60.762 120.68,91.039 l 18.83,18.801 -1.87,26.539 c -16.87,240.051 17.77,501.661 90.37,682.761 100.86,251.64 248.53,479.12 427.02,657.84 89.48,89.61 314.23,252.34 437.71,255.21 104.55,2.43 75.17,-181.67 65.65,-224.9 -20.67,-93.91 -130.75,-385.72 -310.21,-684.83 -60.62,-101.04 -192.69,-283.02 -280.07,-403.44 -41.19,-56.78 -73.73,-101.61 -88.02,-123.05 l -8.32,-12.47 -1.28,-14.95 c -12.11,-142.581 61.73,-288.05 140.29,-368.98 73.66,-75.89 151.67,-103.308 227.1,-129.832 25.85,-9.09 52.59,-18.476 79.66,-29.937 23.26,-9.84 52.18,-26.281 57.87,-48.731 5.62,-22.172 -8.82,-56.941 -39.6,-95.41 -156.84,-195.969 -358.03,-258.07 -552.09,-295.988 -111.61,-21.813 -247.28,-32.41 -414.77,-32.43 -112.73,0 -225.06,4.528 -333.69,8.906 -41.33,1.672 -81.75,3.293 -120.89,4.622 -124.54,4.199 -261.2,12.21 -393.37,19.949 -116.06,6.801 -236.06,13.84 -346.76,18.222 -87.73,3.481 -172.33,5.231 -251.451,5.231 -215.984,0 -401.758,-13.082 -552.152,-38.852 C 325.969,126.66 267.285,111.422 210.527,96.6602 193.969,92.3398 177.508,88.0586 160.984,83.9219 153.785,82.1211 145.113,79.4688 135.063,76.4102 114.258,70.0586 81.5938,60.1211 57.2383,57.2305 v 0"
         style="fill:#15213b;fill-opacity:1;fill-rule:nonzero;stroke:none"
         id="path12" />
      <path
         d="m 3457.63,2365.14 27.65,50.12 c -6.86,3.79 -13.81,6.15 -20.19,7.54 -6.41,1.39 -12.29,1.85 -17.65,1.86 -9.56,-0.03 -17.54,-1.42 -24.76,-3.16 -12.57,-3.13 -23.03,-7.5 -32.7,-12.06 -14.39,-6.88 -26.75,-14.4 -36.03,-20.39 -9.24,-5.97 -15.26,-10.4 -15.96,-10.91 l -1.62,-1.25 c -63.23,-50.19 -118.51,-106.37 -167.84,-167.36 -49.35,-61 -92.76,-126.8 -132.6,-196.51 -89.25,-156.18 -137.66,-298.82 -163.68,-411.88 -26.02,-113.08 -29.72,-196.6 -29.72,-235.11 0,-14.21 0.5,-22.3 0.58,-23.5 1.55,-23.1 16.81,-42.94 38.73,-50.37 21.93,-7.44 46.11,-0.96 61.38,16.43 0.15,0.17 26.96,30.69 57.16,66.47 15.11,17.9 31.05,37.11 45.09,54.71 7.03,8.81 13.58,17.23 19.41,25.02 5.84,7.85 10.9,14.92 15.39,21.99 3.82,6.03 9.4,14.52 16.21,24.71 23.92,35.78 62.94,92.46 103.92,154.19 41.03,61.83 84.07,128.7 117.05,186.79 39.82,70.18 82.03,152.73 117.38,226.55 17.67,36.91 33.6,71.6 46.65,101.55 6.54,14.99 12.35,28.8 17.33,41.2 4.99,12.43 9.14,23.39 12.43,33.15 l -54.23,18.29 52.48,-22.83 c 0.57,1.33 5.31,12.26 10.27,28.27 2.48,8.03 5.01,17.34 7.03,27.66 2,10.34 3.56,21.65 3.59,34.29 -0.01,6.22 -0.39,12.78 -1.5,19.77 -1.68,10.43 -4.95,22.11 -11.91,33.99 -3.47,5.91 -7.9,11.78 -13.27,17.11 -5.35,5.33 -11.65,10.07 -18.42,13.79 -17.74,9.79 -39.3,9.47 -56.75,-0.83 -17.45,-10.3 -28.13,-29.02 -28.13,-49.29 v 0 h 57.23 l 27.65,50.12 -27.65,-50.12 h 57.24 v 0 h -57.24 l -27.64,-50.12 15.12,27.43 -23.95,-20.16 c 2.3,-2.78 5.59,-5.51 8.83,-7.27 l 15.12,27.43 -23.95,-20.16 21.65,18.22 -25.43,-12.48 c 0.79,-1.62 2.02,-3.66 3.78,-5.74 l 21.65,18.22 -25.43,-12.48 14.85,7.29 -16.39,-3.02 c 0.07,-0.34 0.34,-1.81 1.54,-4.27 l 14.85,7.29 -16.39,-3.02 1.55,0.29 -1.57,-0.2 0.02,-0.09 1.55,0.29 -1.57,-0.2 c 0.02,-0.1 0.09,-0.75 0.08,-1.79 0.03,-2.51 -0.43,-7.19 -1.45,-12.33 -1.5,-7.75 -4.15,-16.52 -6.37,-22.85 -1.11,-3.17 -2.11,-5.77 -2.77,-7.44 -0.34,-0.84 -0.59,-1.44 -0.73,-1.78 l -0.12,-0.3 19.4,-8.27 -19.34,8.41 -0.06,-0.14 19.4,-8.27 -19.34,8.41 -1.75,-4.54 c -2.24,-6.66 -5.74,-16 -10.18,-27.06 -7.8,-19.4 -18.52,-44.22 -31.18,-72.11 -38,-83.74 -93.67,-195.56 -143.52,-283.36 -17.41,-30.7 -38.63,-65.3 -61.12,-100.58 -33.74,-52.95 -70.33,-107.47 -101.74,-153.87 -15.71,-23.2 -30.12,-44.38 -42.31,-62.43 -12.2,-18.09 -22.08,-32.88 -29.19,-44.11 -1.8,-2.87 -5.57,-8.27 -10.36,-14.67 -8.43,-11.29 -20.12,-25.98 -32.68,-41.29 -18.86,-23 -39.77,-47.59 -55.89,-66.32 -8.06,-9.37 -14.93,-17.29 -19.77,-22.85 -2.42,-2.78 -4.34,-4.97 -5.64,-6.46 -0.65,-0.75 -1.15,-1.32 -1.48,-1.7 l -0.49,-0.55 43,-37.78 57.11,3.84 -36.95,-2.48 36.96,2.33 -0.01,0.15 -36.95,-2.48 36.96,2.33 -0.01,0.15 c -0.05,0.98 -0.33,6.4 -0.33,15.83 0,31.17 3.02,106.07 26.81,209.43 23.8,103.37 68.33,235.18 151.51,380.76 37.46,65.56 77.54,126.1 122.21,181.32 44.68,55.22 93.91,105.14 150.03,149.71 l -35.6,44.82 33.97,-46.07 -10.79,14.64 10.73,-14.69 0.06,0.05 -10.79,14.64 10.73,-14.69 c 0.29,0.24 11.12,8.04 23.11,14.78 5.93,3.37 12.18,6.44 16.56,8.12 2.16,0.85 3.84,1.34 4.43,1.47 l 0.22,0.05 -2.75,14.41 v -14.6 c 1.95,0.01 2.72,0.2 2.75,0.19 l -2.75,14.41 v -14.6 31.6 l -6.71,-30.83 c 2.99,-0.65 5.22,-0.76 6.71,-0.77 v 31.6 l -6.71,-30.83 8.48,38.91 -19.22,-34.84 c 3.99,-2.2 7.77,-3.43 10.74,-4.07 l 8.48,38.91 -19.22,-34.84 c 17.74,-9.78 39.29,-9.47 56.74,0.84 17.45,10.3 28.14,29.02 28.14,49.28 z m -1507.5,-846.44 -1.76,57.21 c -12.9,-0.42 -25.56,-2.56 -38.71,-6.02 -22.94,-6.09 -47.42,-16.33 -73.56,-31.17 -39.12,-22.28 -81.78,-55.01 -124.69,-100.41 -42.88,-45.39 -85.9,-103.45 -125.23,-176.19 -3.4,-6.29 -6.98,-13.54 -10.9,-21.99 -13.61,-29.45 -31.22,-73.59 -45.97,-123.87 -7.36,-25.13 -13.96,-51.73 -18.81,-78.82 -4.83,-27.11 -7.94,-54.67 -7.95,-82.069 0,-16.289 1.11,-32.539 3.83,-48.66 2.73,-16.109 7.08,-32.141 13.87,-47.699 9.82,-22.5 24.23,-42.653 42.59,-58.543 18.31,-15.918 40.52,-27.41 64.45,-33.219 l -0.13,0.031 c 12.49,-3.07 25.19,-4.582 37.87,-4.582 h 0.02 c 19.15,-0.019 37.9,3.43 55.21,9.602 15.17,5.398 29.25,12.789 42.23,21.508 22.74,15.312 42.24,34.523 60.02,56.043 26.6,32.339 49.52,70.199 71.21,111.308 21.63,41.1 41.87,85.48 61.77,130.55 l -0.02,-0.03 c 5.36,12.12 10.11,22.86 14.03,31.4 l 0.04,0.09 c 4.71,10.28 12.69,28.31 22.48,51.07 14.66,34.09 33.19,78.42 49.65,120.87 8.23,21.24 15.95,42 22.46,61.02 6.51,19.1 11.82,36.14 15.39,51.71 v 0.02 c 2.97,13.24 5.8,29.2 5.84,47.53 -0.02,12.25 -1.29,25.71 -5.58,40.01 -3.22,10.69 -8.26,21.86 -15.73,32.33 -5.58,7.85 -12.51,15.23 -20.48,21.53 -11.97,9.5 -26.09,16.4 -40.95,20.64 -14.9,4.28 -30.57,6.11 -47.18,6.12 -2.33,0 -4.69,-0.04 -7.08,-0.11 h 0.01 l 1.76,-57.21 1.77,-57.21 c 1.23,0.04 2.41,0.06 3.54,0.06 9.54,0.01 14.82,-1.34 16.65,-2.02 0.71,-0.25 0.95,-0.4 0.95,-0.39 l 3.21,5.67 -4.81,-4.28 c 0.68,-0.8 1.56,-1.39 1.6,-1.39 l 3.21,5.67 -4.81,-4.28 6.22,5.53 -7.36,-3.93 1.14,-1.6 6.22,5.53 -7.36,-3.93 3.69,1.97 -3.84,-1.66 0.15,-0.31 3.69,1.97 -3.84,-1.66 1.35,0.58 -1.37,-0.54 0.02,-0.04 1.35,0.58 -1.37,-0.54 0.12,-0.39 c 0.24,-0.84 0.65,-3.23 0.64,-6.7 0.04,-5.72 -1.12,-14.06 -3,-22.2 v 0.02 c -1.28,-5.66 -3.64,-14.14 -6.79,-24.04 -5.51,-17.41 -13.41,-39.37 -22.3,-62.63 -13.34,-34.93 -28.95,-72.93 -42.59,-105.15 -6.82,-16.12 -13.15,-30.8 -18.47,-42.96 -5.31,-12.13 -9.63,-21.81 -12.28,-27.61 l 0.03,0.08 c -4.48,-9.76 -9.37,-20.83 -14.72,-32.95 l -0.01,-0.02 c -16.97,-38.46 -33.82,-75.45 -50.78,-108.82 -12.71,-25.03 -25.49,-48.028 -38.23,-67.989 -9.55,-14.98 -19.07,-28.242 -28.35,-39.391 -13.91,-16.781 -27.25,-28.558 -38.57,-35.332 -5.68,-3.429 -10.82,-5.679 -15.62,-7.117 -4.81,-1.429 -9.28,-2.09 -14.16,-2.101 h -0.02 c -3.57,-0.008 -7.16,0.429 -10.47,1.25 l -0.13,0.031 c -6.63,1.66 -11.82,4.398 -16.6,8.5 -4.74,4.129 -9.12,9.789 -12.69,17.898 -2.35,5.352 -4.45,12.379 -5.89,20.942 -1.45,8.539 -2.23,18.551 -2.23,29.57 -0.02,21.199 2.91,46.009 7.96,71.429 7.53,38.17 19.71,77.72 31.8,110.61 6.04,16.45 12.05,31.27 17.35,43.42 5.28,12.11 9.97,21.73 12.75,26.85 53.07,98.17 111.77,162.46 161.92,201.78 25.05,19.66 47.99,33.03 66.44,41.2 9.2,4.09 17.27,6.87 23.66,8.56 6.36,1.7 11.08,2.23 12.99,2.27 h 0.01 z M 57.2383,57.2305 112,40.5898 c 0.789,2.6211 2.344,6.8907 4.43,11.711 3.121,7.2812 7.437,15.9101 12.097,23.9883 4.633,8.0898 9.7,15.7226 13.805,20.9609 l -0.008,-0.0117 c 12.977,16.6597 31.504,35.6917 55.375,55.9917 23.867,20.329 53.035,41.961 87.172,64.391 52.902,34.758 103.289,62.668 156.18,86.199 52.894,23.52 108.41,42.711 171.668,59.559 h 0.004 c 90.757,24.191 185.437,37.562 279.074,44.769 93.644,7.223 186.193,8.301 272.863,8.301 h -0.09 l 9.3,-0.019 h 0.04 c 56.84,-0.051 130.85,-1.891 215.22,-4.981 253.26,-9.277 600,-29.711 871.55,-45.73 95.04,-5.59 180.12,-10.598 248.11,-14.36 34,-1.871 63.73,-3.437 88.37,-4.597 24.66,-1.172 44.12,-1.942 58.2,-2.231 l -0.27,0.008 9.35,-0.23 h -0.02 c 15.31,-0.387 41.55,-1.079 73.04,-1.079 113.47,0.02 191.51,8.829 247.58,21.071 28.01,6.121 50.54,13.14 68.86,20.308 18.27,7.129 32.43,14.532 42.58,20.379 10.23,5.871 20.58,12.332 30.66,19.332 15.13,10.578 29.56,21.981 42.51,36.059 6.47,7.133 12.67,14.961 18.15,25.051 2.72,5.058 5.25,10.73 7.21,17.308 1.95,6.563 3.33,14.102 3.33,22.442 0,3.41 -0.23,6.922 -0.74,10.468 v 0.024 c -1.1,7.758 -3.49,15.476 -6.84,22.348 -3.13,6.449 -7.05,12.128 -11.2,16.91 -7.84,9 -16.24,14.879 -24.01,19.242 -13.69,7.519 -26.04,10.988 -37.84,13.719 -17.62,3.898 -34.32,5.468 -48.73,6.73 -7.16,0.598 -13.68,1.09 -19.01,1.551 -5.28,0.437 -9.49,0.93 -11.01,1.187 -53.09,8.59 -102.67,23.461 -147.1,41.973 -44.42,18.5 -83.69,40.668 -115.94,63.457 -16.35,11.543 -32.22,26.121 -46.49,41.602 -21.44,23.211 -39.26,48.359 -51.33,67.359 -6.05,9.5 -10.69,17.461 -13.72,22.879 -1.52,2.711 -2.64,4.781 -3.34,6.101 l -0.72,1.379 -0.12,0.243 -16.89,-8.622 16.93,8.54 -0.04,0.082 -16.89,-8.622 16.93,8.54 c -7.37,14.601 -20.65,25.359 -36.46,29.55 -15.81,4.192 -32.67,1.399 -46.3,-7.64 l -54.23,-36 C 2426.6,784 2339.58,737.871 2259.82,708.051 c -79.84,-29.84 -152.18,-43.531 -221.41,-43.563 -7.1,0 -14.28,0.153 -21.25,0.453 h -0.02 c -37.13,1.571 -69.83,10.129 -93.42,20.61 -11.77,5.187 -21.22,10.859 -27.5,15.648 -3.15,2.371 -5.49,4.512 -6.95,6.039 -0.73,0.762 -1.24,1.371 -1.53,1.75 l -0.29,0.383 -0.02,0.039 -2.19,-1.422 2.23,1.352 -0.04,0.07 -2.19,-1.422 2.23,1.352 -35.73,59.34 c -8.75,14.539 -23.25,24.32 -40.01,27 -16.77,2.672 -33.59,-2.121 -46.44,-13.211 l -52.41,-45.278 c -13.66,-11.812 -29.3,-22.043 -45.8,-30.679 -24.73,-12.992 -51.35,-22.321 -74.96,-28.633 -23.62,-6.328 -44.19,-9.688 -56.83,-11.32 l -0.05,-0.008 c -14.71,-1.91 -29.74,-2.871 -44.45,-2.871 -38.43,0 -74.51,6.461 -106.68,18.371 -32.2,11.91 -60.47,29.199 -83.79,51.058 l -0.03,0.02 -8.89,-9.488 9.02,9.371 -0.13,0.117 -8.89,-9.488 9.02,9.371 -0.01,0.008 c -0.21,0.199 -1.31,1.332 -2.7,2.82 -2.47,2.66 -5.98,6.57 -9.73,10.851 -5.65,6.45 -11.96,13.848 -17.09,20.028 -2.56,3.082 -4.83,5.871 -6.5,7.972 -0.82,1.039 -1.5,1.911 -1.93,2.469 l -0.41,0.551 v 0 l -15.72,-11.211 15.91,10.941 -0.19,0.27 -15.72,-11.211 15.91,10.941 -0.01,0.008 -37.35,54.25 c -9.27,13.473 -23.73,22.27 -39.96,24.332 -16.23,2.051 -32.42,-2.871 -44.76,-13.609 l -49.64,-43.203 -0.32,-0.278 c -0.56,-0.5 -2.39,-2.011 -4.82,-3.851 -4.29,-3.258 -10.48,-7.641 -17.22,-12.199 -10.13,-6.871 -21.61,-14.262 -31.21,-20.25 -4.79,-3 -9.14,-5.661 -12.55,-7.7 -1.7,-1.031 -3.18,-1.902 -4.31,-2.55 -1.11,-0.653 -1.93,-1.102 -1.98,-1.129 -105.032,-56.731 -221.036,-86.532 -334.594,-86.5 -101.989,-0.024 -198.817,25.09 -279.817,71.508 v 0 c -42.238,24.218 -75.715,53.039 -102.886,85.3 -40.668,48.352 -67.274,104.981 -83.809,165.321 -16.524,60.249 -22.707,123.929 -22.688,183.959 0,18.67 0.59,36.97 1.625,54.7 v 0 c 6.852,116.76 31.532,233.7 74.106,350.42 42.574,116.71 103.082,233.19 181.613,348.6 135.281,198.87 323.485,390.77 543.445,553.02 79.865,58.95 180.895,125.59 293.095,182.1 112.19,56.56 235.51,102.8 359.3,122.19 45.81,7.24 92.35,13.74 134.57,13.69 23.86,0.02 43.45,-2.03 58.76,-5.47 15.37,-3.44 26.32,-8.13 34.33,-13.24 l 0.02,-0.01 c 10.19,-6.51 17.87,-13.81 24.3,-22.12 9.57,-12.4 16.3,-27.53 20.6,-44.47 4.3,-16.86 5.98,-35.25 5.96,-52.2 0.01,-10.91 -0.67,-21.21 -1.6,-30.1 v 0.02 c -4.41,-42.39 -17.98,-89.29 -39.06,-135 -15.79,-34.3 -35.73,-67.94 -58.68,-98.78 -34.4,-46.3 -75.64,-86.13 -118.68,-113.4 -21.51,-13.66 -43.42,-24.22 -65.13,-31.28 -21.73,-7.08 -43.2,-10.7 -64.43,-10.7 h 0.05 c -10.85,-0.01 -20.53,2.18 -27.81,5.36 -7.33,3.18 -12.04,7.19 -14.54,10.45 l 0.01,-0.01 c -1.37,1.79 -1.91,2.94 -2.31,4.07 -0.37,1.14 -0.65,2.36 -0.66,4.6 0,2.01 0.27,4.84 1.26,8.67 v 0.02 c 2.37,8.86 5.15,13.85 9.35,19.03 3.21,3.84 7.54,7.81 14.02,12.14 9.63,6.49 24.15,13.46 43.37,20.37 19.19,6.95 42.89,13.89 70.35,21.48 l -0.03,-0.01 c 8,2.21 16.05,4.44 24.11,6.74 l -0.03,-0.01 c 40.42,11.5 74.71,26.56 103.5,44.83 21.59,13.7 40.03,29.22 55.31,46.05 22.95,25.23 38.53,53.36 47.86,81.19 9.38,27.87 12.73,55.28 12.73,80.4 0,8.75 -0.41,17.24 -1.12,25.42 -1.61,18.41 -6.02,37.27 -14.02,55.65 -6,13.77 -14.05,27.26 -24.4,39.67 -15.47,18.66 -36.27,34.7 -61.09,45.43 -24.82,10.79 -53.28,16.32 -84.34,16.3 -25.96,-0.03 -51.1,-3.69 -74.83,-8.86 -35.55,-7.82 -67.96,-19.17 -93.05,-29.13 -25.05,-9.97 -42.71,-18.6 -47.88,-21.18 l -0.01,-0.01 c -114.73,-57.34 -210.07,-133.27 -294.08,-218.15 -84.06,-84.94 -157.09,-178.84 -228.231,-273.77 -138.254,-184.57 -243.144,-366.54 -313.676,-545.34 -70.511,-178.76 -106.589,-354.5 -106.582,-525.44 0,-24.88 0.766,-49.64 2.293,-74.29 2.743,-43.91 12.246,-87.89 27.692,-129.76 11.594,-31.39 26.551,-61.601 44.793,-89.582 27.367,-41.918 62.176,-79.027 104.672,-106.269 21.23,-13.598 44.386,-24.649 69.179,-32.27 24.774,-7.621 51.172,-11.769 78.465,-11.757 32.875,-0.02 65.59,6 97.024,17.468 31.461,11.461 61.661,28.27 90.421,49.68 l -0.02,-0.012 c 47.22,35.153 82.7,78.703 111.36,122.953 28.66,44.321 50.78,89.679 70.73,130.239 l 0.01,0.02 c 11.03,22.48 21.17,43.09 31.21,61.66 l -0.02,-0.04 c 58.02,107.16 126.16,201.5 208.3,278.34 45.52,42.57 91.66,77.02 139.38,105.15 47.74,28.13 97.09,49.97 149.29,67.02 25.77,8.41 49.44,14.31 73.53,18.21 24.1,3.89 48.71,5.8 76.44,5.8 3.31,0 6.65,-0.02 10.04,-0.08 h 0.01 c 9.55,-0.17 16.91,-1.7 23.2,-3.88 9.34,-3.3 16.61,-8.24 22.93,-14.23 6.26,-5.93 11.25,-12.97 14.51,-18.71 10.42,-18.23 29.97,-29.29 50.96,-28.82 21,0.46 40.04,12.37 49.64,31.05 3.11,6.04 6.33,12.61 9.59,19.26 4.85,9.92 9.84,20.09 13.67,27.27 1.88,3.55 3.52,6.39 4.16,7.4 l 0.17,0.26 0.04,0.05 -18.63,12.65 17.38,-14.28 c 0.93,1.14 1.2,1.57 1.25,1.63 l -18.63,12.65 17.38,-14.28 -35.24,28.95 28.84,-35.26 c 3.96,3.29 5.4,5.16 6.4,6.31 l -35.24,28.95 28.84,-35.26 -34.77,42.51 24.07,-49.38 c 2.61,1.31 6.03,3.09 10.71,6.87 l -34.78,42.51 24.07,-49.38 -21.59,44.28 12.58,-47.67 c 1.63,0.48 3.99,1.01 9.01,3.39 l -21.59,44.28 12.58,-47.67 -8.05,30.52 5.54,-31.08 c 0.33,0.06 1.03,0.18 2.51,0.56 l -8.05,30.52 5.54,-31.08 -1.59,8.89 1.37,-8.93 0.22,0.04 -1.59,8.89 1.37,-8.93 c 0.12,0.04 3.54,0.43 7.97,0.69 6.77,0.43 16.4,0.77 27.07,0.98 10.69,0.22 22.51,0.31 34.2,0.31 12.29,0 24.45,-0.1 35.03,-0.28 10.55,-0.17 19.63,-0.42 25.28,-0.68 8.16,-0.35 18.47,-0.54 30.28,-0.85 17.53,-0.44 38.08,-1.15 53.37,-2.55 7.54,-0.65 13.89,-1.59 16.32,-2.14 l 0.65,-0.15 0.17,-0.04 6.31,22.67 -9.96,-21.24 c 2.67,-1.22 3.58,-1.39 3.65,-1.43 l 6.31,22.67 -9.96,-21.24 18.07,38.57 -23.6,-35.43 c 2.4,-1.59 4.2,-2.5 5.53,-3.14 l 18.07,38.57 -23.6,-35.43 27.56,41.36 -36.51,-33.68 c 3.51,-3.79 6.56,-6.07 8.95,-7.68 l 27.56,41.36 -36.51,-33.68 -0.02,0.02 36.75,33.87 -44.36,-23.05 c 1.78,-3.44 4.3,-7.23 7.61,-10.82 l 36.75,33.87 -44.36,-23.05 40.71,21.16 -45.14,-8.49 c 0.6,-3.14 1.74,-7.46 4.43,-12.67 l 40.71,21.16 -45.14,-8.49 34.66,6.52 h -35.31 c 0.01,-1.29 0.06,-3.36 0.65,-6.52 l 34.66,6.52 h -35.31 15.08 l -15,1.82 c 0,0 -0.08,-0.5 -0.08,-1.82 h 15.08 l -15,1.82 c 0,-0.05 -0.29,-1.91 -1.03,-4.76 -1.27,-5.05 -3.81,-13.13 -7.34,-22.99 -5.29,-14.85 -12.75,-33.84 -21.38,-55.76 -8.64,-21.94 -18.48,-46.87 -28.65,-74.13 v 0.01 c -16.3,-43.81 -42.25,-101.16 -69.6,-172.41 -10.27,-26.8 -20.8,-53.64 -31.16,-80.09 v 0.02 c -26.8,-68.4 -51.05,-130.12 -69.11,-185.67 -9.02,-27.798 -16.51,-54.091 -21.88,-79.251 -5.34,-25.168 -8.65,-49.231 -8.67,-72.957 0,-13.813 1.15,-27.543 3.95,-41.172 4.15,-20.36 12.36,-40.719 25.5,-58.418 13.05,-17.75 30.71,-32.184 50.43,-42.301 26.77,-13.902 56.79,-20.762 87.12,-20.711 23.24,0.012 45.34,3.871 65.98,9.789 30.98,8.91 58.92,22.371 84.01,36.492 25.05,14.149 47.32,29.098 65.82,41.469 l -0.07,-0.051 c 5.81,3.879 11.12,7.43 15.78,10.473 l -0.06,-0.031 c 29.18,19.008 52.67,34.758 73.55,50.289 20.84,15.5 39.1,30.93 56.37,48.23 l -0.03,-0.031 18.83,18.801 c 11.72,11.711 17.81,28 16.64,44.519 l -1.86,26.539 c -2.73,38.792 -4.07,78.272 -4.07,117.912 -0.01,98.54 8.29,198.09 23.83,290.71 15.51,92.61 38.35,178.34 66.64,248.82 98.08,244.82 241.88,466.01 414.39,638.69 20.07,20.12 49.5,45.97 83.6,72.68 51.15,40.15 113.19,82.61 171.71,114.27 29.21,15.84 57.56,28.96 82.55,37.86 24.93,8.98 46.61,13.41 60.68,13.63 l 0.71,0.01 c 2.52,-0.01 3.64,-0.31 4.05,-0.43 l 0.26,-0.09 0.08,0.18 -0.11,-0.16 0.03,-0.02 0.08,0.18 -0.11,-0.16 0.38,-0.34 c 0.54,-0.54 1.88,-2.15 3.48,-5.43 2.43,-4.85 5.12,-13.32 6.8,-23.89 1.73,-10.56 2.57,-23.11 2.56,-36.05 0,-17.99 -1.57,-36.73 -3.64,-52.73 -2.04,-15.97 -4.59,-29.4 -6.15,-36.45 -2.11,-9.61 -5.73,-23.25 -10.76,-39.77 -8.81,-28.97 -21.91,-66.92 -38.96,-111.25 -51.16,-133.11 -137.95,-323.84 -253.67,-516.66 -14.35,-23.92 -33.55,-53.62 -55.48,-86.26 -32.92,-49 -72.04,-104.75 -111.07,-159.46 -39.04,-54.71 -78,-108.4 -110.77,-153.55 -20.6,-28.4 -39.06,-53.84 -54.26,-75.01 -15.24,-21.22 -27.07,-37.93 -35.06,-49.91 l -8.31,-12.47 c -5.38,-8.07 -8.58,-17.22 -9.41,-26.88 l -1.27,-14.95 -0.01,-0.02 c -1.02,-12.07 -1.51,-24.12 -1.51,-36.09 0.06,-76.09 19.54,-149.189 48.51,-213.779 29.11,-64.621 67.66,-120.883 109.25,-163.832 41.43,-42.758 85.17,-72.558 127.74,-94.437 42.59,-21.922 83.77,-36.242 121.45,-49.524 l -0.02,0.012 c 25.88,-9.102 51.4,-18.102 76.35,-28.66 8.93,-3.711 18.41,-8.809 23.47,-12.699 1.26,-0.942 2.24,-1.782 2.89,-2.391 l 0.88,-0.891 0.04,-0.05 12.31,9.73 -14.89,-3.777 c 1.02,-3.992 2.54,-5.91 2.58,-5.953 l 12.31,9.73 -14.89,-3.777 15.31,3.886 h -15.88 c 0,-0.5 0.05,-1.847 0.56,-3.878 l 15.32,3.878 h -15.88 3 l -2.99,0.231 -0.01,-0.231 h 3 l -2.99,0.231 c 0,-0.129 -0.21,-1.82 -1.1,-4.609 -1.3,-4.2 -4.12,-10.758 -8.66,-18.551 -4.53,-7.797 -10.73,-16.848 -18.49,-26.539 -36.41,-45.481 -75.03,-82.821 -115.46,-114.078 -60.63,-46.852 -125.48,-80.161 -193.29,-105.391 -67.76,-25.223 -138.43,-42.219 -209.63,-56.121 -106.45,-20.828 -238.72,-31.371 -403.79,-31.36 -111.2,0 -222.76,4.481 -331.39,8.86 -41.33,1.672 -81.87,3.289 -121.24,4.64 h -0.02 c -123.52,4.161 -259.8,12.141 -391.95,19.879 -116.06,6.801 -236.37,13.86 -347.85,18.282 -88.42,3.5 -173.75,5.269 -253.711,5.269 -218.324,-0.019 -406.906,-13.16 -561.82,-39.68 h -0.016 C 313.488,182.59 252.867,166.801 196.125,152.059 l -0.039,-0.02 C 179.551,147.73 163.262,143.5 147.063,139.43 l 0.078,0.019 c -9.539,-2.39 -18.703,-5.238 -28.731,-8.277 l -0.051,-0.012 C 108.012,128 95.3633,124.16 82.8945,120.871 70.5273,117.578 58.125,114.941 50.4961,114.07 l 6.7422,-56.8395 57.1247,-3.5703 v 0 L 57.2383,57.2305 112,40.5898 57.2383,57.2305 0.113281,60.8008 v 0 C -0.949219,43.8594 5.57422,27.3203 17.9063,15.6484 30.2383,3.99219 47.1211,-1.60156 63.9766,0.390625 80.707,2.42188 96.8125,6.19141 112.066,10.1797 c 15.157,3.9922 29.239,8.3008 39.696,11.4805 l -0.051,-0.0118 c 10.078,3.0704 18.258,5.5313 23.117,6.7305 l 0.078,0.0195 c 16.848,4.2227 33.485,8.5508 50.067,12.8711 l -0.043,-0.0078 c 56.773,14.7696 113.519,29.4688 178.636,40.6367 h -0.011 c 145.871,25.0236 328.836,38.0626 542.484,38.0426 78.281,0 162.151,-1.742 249.181,-5.191 109.93,-4.352 229.63,-11.371 345.69,-18.168 132.18,-7.7304 269.22,-15.7734 394.78,-20.0117 h -0.02 c 38.9,-1.3281 79.22,-2.9414 120.52,-4.6094 108.65,-4.3828 221.75,-8.9492 336.01,-8.9609 169.9,0.0391 308.98,10.6992 425.75,33.4922 99.11,19.3988 202.82,45.3398 303.59,93.2068 50.36,23.93 99.92,53.391 147.38,90.082 47.47,36.688 92.81,80.61 134.83,133.117 15.37,19.243 27.9,38.332 37.26,57.864 4.67,9.789 8.54,19.718 11.39,30.109 2.83,10.391 4.67,21.277 4.69,33.027 0,7.75 -0.84,15.903 -2.95,24.231 -3.89,15.281 -11.18,27.672 -18.93,37.359 -5.85,7.321 -12.07,13.321 -18.29,18.512 -9.35,7.781 -18.78,13.801 -27.88,18.91 -9.09,5.078 -17.89,9.192 -25.94,12.602 -29.2,12.347 -57.15,22.129 -82.97,31.218 l -0.02,0.008 c -37.75,13.242 -73.29,25.891 -106.97,43.282 -33.72,17.429 -65.82,39.289 -98.04,72.41 -31.23,32.082 -63.49,78.582 -86.97,131.011 -23.62,52.469 -38.52,110.729 -38.46,166.869 0,8.85 0.36,17.65 1.11,26.39 l -0.01,-0.02 0.03,0.3 0.16,0.24 c 6.3,9.46 17.89,25.89 32.79,46.64 14.94,20.8 33.34,46.16 53.94,74.55 43.69,60.22 98.7,136.02 150.54,209.65 25.93,36.82 51.06,73.11 73.66,106.75 22.61,33.66 42.66,64.61 58.62,91.2 91.3,152.18 164.69,301.99 218.15,426.19 26.73,62.11 48.46,117.81 64.98,164.41 8.26,23.31 15.21,44.34 20.86,62.9 5.64,18.58 9.98,34.6 13.04,48.47 2.34,10.65 5.35,26.74 7.89,46.47 2.53,19.7 4.56,42.85 4.57,67.32 -0.01,17.46 -1.03,35.6 -3.96,53.92 -2.22,13.75 -5.51,27.63 -10.67,41.48 -3.88,10.37 -8.84,20.75 -15.43,30.8 -4.94,7.52 -10.83,14.84 -17.79,21.58 -10.41,10.11 -23.42,18.79 -37.97,24.47 -14.55,5.74 -30.36,8.46 -46.15,8.43 -1.13,0 -2.25,-0.01 -3.38,-0.04 -21.5,-0.52 -42.74,-4.31 -64.18,-10.07 -37.45,-10.17 -75.73,-26.55 -114.36,-46.45 -57.84,-29.89 -116.23,-67.87 -168.35,-106.23 -26.05,-19.18 -50.49,-38.45 -72.42,-56.91 -21.95,-18.48 -41.36,-36.11 -57.56,-52.33 -184.46,-184.76 -336.01,-418.51 -439.65,-676.99 -32.16,-80.29 -56.61,-173.23 -73.27,-272.47 -16.64,-99.23 -25.41,-204.71 -25.41,-309.65 0,-42.22 1.42,-84.35 4.34,-125.939 l 0.04,-0.492 -0.35,-0.348 -0.03,-0.031 c -12.98,-12.969 -26.24,-24.27 -43.77,-37.328 -17.48,-13.024 -39.2,-27.66 -67.68,-46.211 l -0.06,-0.039 c -5.43,-3.551 -10.98,-7.262 -16.7,-11.082 l -0.06,-0.039 c -24.53,-16.461 -51.67,-34.422 -78.58,-47.571 -13.42,-6.582 -26.69,-11.929 -39.14,-15.492 -12.46,-3.578 -24.03,-5.359 -34.43,-5.347 -13.69,0.05 -24.59,2.82 -34.53,7.91 -4.18,2.168 -6.73,4.148 -8.59,5.949 -2.71,2.738 -4.36,5.141 -6.2,10.219 -1.75,5.019 -3.22,12.91 -3.21,24.043 -0.02,12.699 1.93,29.367 6.16,49.097 6.29,29.621 17.56,65.981 32.39,107.471 14.81,41.52 33.12,88.25 53.22,139.52 l 0.01,0.02 c 10.34,26.4 20.97,53.5 31.46,80.86 26,67.86 51.36,123.68 69.96,173.35 v 0.01 c 15.8,42.36 31.1,79.68 42.95,110.8 5.94,15.62 11.03,29.63 15.02,42.81 1.99,6.62 3.72,13.04 5.09,19.75 1.34,6.75 2.44,13.7 2.48,22.48 -0.03,5.72 -0.46,12.32 -2.67,20.46 -1.12,4.05 -2.73,8.48 -5.14,13.13 -2.4,4.64 -5.65,9.48 -9.8,13.98 l -0.02,0.02 c -3.69,3.99 -7.19,6.81 -10.33,9.02 -6.1,4.24 -10.93,6.39 -15.17,8.11 -7.87,3.08 -13.98,4.45 -20.12,5.7 -10.59,2.04 -21.01,3.15 -31.97,4.05 -16.33,1.31 -33.53,1.94 -48.8,2.37 -7.62,0.22 -14.73,0.38 -20.84,0.53 -6.08,0.15 -11.23,0.3 -14.47,0.44 -7.47,0.33 -17.19,0.59 -28.48,0.78 -11.26,0.19 -23.98,0.3 -36.92,0.3 -19.92,-0.01 -40.24,-0.26 -57.02,-0.94 -8.45,-0.36 -15.89,-0.78 -22.96,-1.52 -3.62,-0.4 -7.04,-0.81 -11.61,-1.74 -2.34,-0.5 -4.96,-1.08 -8.83,-2.39 -1.96,-0.68 -4.25,-1.53 -7.24,-2.98 -2.98,-1.49 -6.7,-3.46 -11.62,-7.43 -4.29,-3.55 -6.7,-6.27 -8.72,-8.61 -3.66,-4.34 -5.76,-7.54 -7.8,-10.7 -3.45,-5.43 -6.27,-10.57 -9.19,-16.06 -4.33,-8.17 -8.64,-16.93 -12.74,-25.28 -4.07,-8.32 -7.94,-16.24 -10.85,-21.9 l 50.9,-26.18 49.69,28.4 c -10.23,17.82 -26.57,40.39 -52.7,59.72 -13.04,9.61 -28.54,18.25 -46.32,24.47 -17.76,6.23 -37.74,9.96 -59.16,10.29 h 0.01 c -4,0.06 -7.97,0.1 -11.91,0.1 -33.03,0 -64.17,-2.33 -94.7,-7.27 -30.53,-4.93 -60.35,-12.45 -90.81,-22.4 -59.42,-19.39 -116.69,-44.69 -171.87,-77.22 -55.19,-32.52 -108.25,-72.25 -159.47,-120.18 -93.24,-87.25 -168.3,-192.09 -230.75,-307.42 l -0.02,-0.03 c -11.52,-21.32 -22.24,-43.19 -33.28,-65.68 l 0.01,0.03 c -19.88,-40.55 -40.23,-81.71 -64.08,-118.502 -23.84,-36.859 -50.88,-69.007 -83.59,-93.308 l -0.01,-0.008 c -21.022,-15.652 -41.499,-26.762 -61.237,-33.953 -19.774,-7.18 -38.801,-10.539 -57.848,-10.559 -28.031,0.059 -53.148,7.262 -77.07,20.641 -17.871,10.051 -34.887,23.738 -50.449,40.5 -23.348,25.098 -43.27,57.141 -57.618,92.16 -14.39,34.989 -23.195,72.869 -25.41,108.959 -1.379,22.26 -2.07,44.66 -2.07,67.2 0.008,154.77 32.582,316.01 98.598,483.44 66,167.39 165.519,340.8 298.804,518.71 70.24,93.8 140.3,183.45 217.96,261.86 77.7,78.46 162.71,145.68 263.92,196.3 h -0.01 c 3.96,1.99 29.26,14.36 61.92,25.79 16.31,5.71 34.44,11.18 52.33,15.09 17.87,3.94 35.52,6.24 50.34,6.21 15.78,0 27.25,-2.43 35.69,-5.59 6.35,-2.39 11.07,-5.2 14.97,-8.28 5.79,-4.62 9.95,-10 13.2,-16.57 3.22,-6.52 5.28,-14.26 5.95,-22.05 0.45,-5.12 0.69,-10.31 0.69,-15.5 0,-13.28 -1.59,-26.52 -5.27,-39.14 -2.77,-9.48 -6.67,-18.64 -12.17,-27.64 -8.28,-13.46 -20.1,-26.81 -38.82,-39.88 -18.71,-13.01 -44.52,-25.61 -80.01,-35.71 l -0.03,-0.01 c -7.49,-2.13 -15.24,-4.28 -23.19,-6.48 h -0.02 c -25.17,-6.97 -48.58,-13.7 -70.56,-21.27 -16.48,-5.68 -32.17,-11.84 -47.18,-19.17 -11.25,-5.5 -22.12,-11.68 -32.49,-18.91 -15.53,-10.8 -30,-24.18 -41.71,-40.44 -11.74,-16.21 -20.41,-35.09 -25.5,-55.1 l 0.01,0.02 c -3.11,-12.07 -4.87,-24.53 -4.87,-37.17 -0.01,-13.98 2.21,-28.19 6.83,-41.64 4.59,-13.47 11.53,-26.07 20.12,-37.13 l 0.01,-0.02 c 15.9,-20.47 36.7,-35.44 59.41,-45.32 22.77,-9.87 47.66,-14.8 73.33,-14.84 h 0.05 c 30.52,0 60.45,4.67 89.17,13.03 50.28,14.66 96.83,40.38 138.86,72.91 63.01,48.91 116.26,113.23 156.49,183.58 40.1,70.43 67.3,146.93 75.3,222.17 v 0.02 c 1.29,12.25 2.23,26.45 2.23,42.01 -0.06,32.17 -3.85,70.4 -18.62,109.32 -7.4,19.42 -17.68,38.96 -31.74,57.22 -14.04,18.25 -31.91,35.1 -53.5,48.81 l 0.02,-0.01 c -21.22,13.53 -45.16,22.68 -70.88,28.42 -25.78,5.75 -53.5,8.22 -83.73,8.23 -53.48,-0.05 -105.44,-7.75 -152.33,-15.08 -139.64,-21.99 -273.25,-72.75 -393.03,-133.04 C 1116.93,2701.58 1010.93,2631.52 927.137,2569.7 697.668,2400.34 500.816,2200.2 357.02,1988.97 273.723,1866.56 208.648,1741.69 162.504,1615.21 116.359,1488.73 89.1836,1360.64 81.6641,1232.24 v 0 c -1.1563,-19.79 -1.8243,-40.31 -1.8243,-61.39 0.004,-45.18 3.0469,-92.89 10.9571,-141.31 11.8831,-72.56 34.7301,-146.95 75.5001,-215.552 20.375,-34.258 45.238,-67 75.199,-96.929 29.945,-29.93 64.969,-57.02 105.301,-80.118 h 0.004 c 99.679,-57.07 216.035,-86.652 336.715,-86.66 133.531,0.028 267.75,34.809 388.974,100.25 2.62,1.418 4.99,2.801 7.95,4.539 10.1,5.989 25.82,15.762 41.76,26.25 7.96,5.25 15.9,10.629 23.24,15.871 3.68,2.618 7.21,5.219 10.6,7.821 3.39,2.617 6.62,5.199 9.95,8.136 l -0.32,-0.277 1.28,1.109 0.99,-1.441 -0.01,0.012 c 1.02,-1.492 1.87,-2.629 2.73,-3.789 1.6,-2.133 3.24,-4.211 5.07,-6.492 6.32,-7.879 14.96,-18.149 23.35,-27.809 4.19,-4.82 8.27,-9.43 11.99,-13.512 1.86,-2.051 3.64,-3.969 5.38,-5.789 1.78,-1.851 3.42,-3.539 5.59,-5.578 l -0.02,0.02 c 35.09,-32.903 76.79,-58.071 122.38,-74.922 45.61,-16.871 95.14,-25.481 146.39,-25.481 19.67,0 39.52,1.27 59.22,3.84 l -0.05,-0.008 c 22.17,2.879 59.86,9.25 102.91,23.629 21.53,7.211 44.41,16.442 67.36,28.461 22.94,12.027 45.96,26.867 67.48,45.438 l 1,0.871 0.69,-1.141 c 5.04,-8.359 10.85,-15.578 17.16,-22.187 11.06,-11.52 23.74,-21.25 37.97,-30.051 21.33,-13.121 46.25,-24.031 74.41,-32.289 28.14,-8.231 59.49,-13.711 93.24,-15.18 h -0.02 c 8.73,-0.383 17.53,-0.57 26.26,-0.57 84.57,-0.012 171.19,17 261.51,50.82 90.39,33.84 184.71,84.328 286.63,151.977 l 54.23,35.992 -31.66,47.687 -51.1,-25.777 c 0.9,-1.762 14.98,-29.582 40.43,-65.691 12.75,-18.059 28.35,-38.211 46.84,-58.258 18.51,-20.032 39.88,-40 64.57,-57.461 39.36,-27.813 85.74,-53.871 137.97,-75.641 52.21,-21.75 110.28,-39.18 172.82,-49.301 5.96,-0.961 11.37,-1.507 16.92,-2.019 9.62,-0.86 19.53,-1.531 29.02,-2.442 7.09,-0.679 13.88,-1.488 19.6,-2.457 4.27,-0.711 7.93,-1.531 10.45,-2.25 1.88,-0.519 3.12,-1 3.4,-1.14 l 0.07,-0.02 9.36,19.559 -15.62,-14.52 c 3.89,-4.09 6.22,-4.968 6.26,-5.039 l 9.36,19.559 -15.62,-14.52 26.67,24.801 -32.54,-16.281 c 1.8,-3.61 3.97,-6.488 5.87,-8.52 l 26.67,24.801 -32.54,-16.281 34.76,17.379 -38.48,-5.489 c 0.56,-4.05 1.91,-8.308 3.72,-11.89 l 34.76,17.379 -38.48,-5.489 v 0.02 l 39.84,5.68 h -40.24 c -0.01,-1.789 0.12,-3.711 0.4,-5.68 l 39.84,5.68 h -40.24 34.01 l -31.91,12.211 c -0.86,-2.262 -2.09,-6.352 -2.1,-12.211 h 34.01 l -31.91,12.211 14.22,-5.442 -12.87,8.289 c -0.02,-0.058 -0.56,-0.828 -1.35,-2.847 l 14.22,-5.442 -12.87,8.289 -0.23,-0.316 c -0.62,-0.871 -2.56,-3.141 -5.46,-5.883 -4.36,-4.148 -10.83,-9.391 -18.21,-14.59 -7.39,-5.219 -15.71,-10.469 -23.91,-15.168 -6.9,-3.949 -14.96,-8.199 -27.32,-13.062 -18.45,-7.219 -46.54,-15.571 -90.51,-22.168 -43.93,-6.59 -103.59,-11.352 -184.22,-11.34 -29.89,0 -54.84,0.648 -70.14,1.039 h -0.02 l -9.35,0.23 -0.27,0.008 c -12.07,0.242 -30.99,0.973 -55.11,2.114 -72.54,3.437 -192.64,10.519 -335.16,18.898 -181.07,10.68 -395.74,23.34 -594.33,33.359 -99.31,5.012 -194.6,9.36 -279.76,12.481 -85.18,3.121 -160.16,5.012 -219.3,5.07 h 0.04 l -9.31,0.012 h -0.09 C 1077.04,530.91 981.496,529.871 883,522.281 784.496,514.68 682.98,500.551 583.258,474 h 0.004 C 515.203,455.879 453.539,434.672 394.531,408.422 335.52,382.18 279.289,350.949 221.992,313.281 184.676,288.75 151.832,264.52 123.496,240.398 95.1641,216.262 71.3047,192.281 52.0703,167.648 l -0.0117,-0.007 c -11.207,-14.43 -20.8789,-30.219 -29.332,-46.2 -4.2032,-7.98 -8.043,-15.98 -11.4453,-23.8824 C 7.87891,89.6406 4.91406,81.8789 2.47266,73.8789 1.26953,69.9102 0.371094,64.9414 0.113281,60.8008 L 57.2383,57.2305"
         style="fill:#fbc31b;fill-opacity:1;fill-rule:nonzero;stroke:none"
         id="path14" />
      <path
         d="m 3457.63,2365.14 c -23.35,12.88 -85.67,-33.07 -85.67,-33.07 -119.34,-94.77 -209.04,-212.18 -286.34,-347.45 -204.24,-357.42 -185.4,-638.26 -185.4,-638.26 0,0 106.54,121.29 131.68,161.02 34.27,54.17 163.22,235.5 235.77,363.34 77.79,137.07 167.18,326.79 189.34,392.49 0,0 35.88,82.49 0.62,101.93 z M 1950.13,1518.7 c -59.26,-1.82 -200.59,-74.77 -313.6,-283.8 -26.37,-48.78 -108.13,-251.681 -63.83,-352.959 13.38,-30.621 37.59,-51.621 68.16,-59.082 7.9,-1.949 16.05,-2.918 24.17,-2.918 99.69,-0.019 169.51,139.457 238.09,294.879 5.36,12.11 10.17,23.02 14.38,32.17 17.54,38.32 91.58,209.18 106.2,273.53 9.11,40.12 12.14,100.81 -73.57,98.18 z M 57.2383,57.2305 c 6.4531,21.2383 23.2461,53.7815 39.957,75.2185 32.2107,41.281 84.7817,86.031 156.2387,133 110.195,72.43 213.242,118.27 344.554,153.242 190.485,50.739 392.387,54.989 566.672,54.989 l 9.3,-0.008 c 231.96,-0.211 727.95,-29.453 1090.09,-50.813 190.06,-11.179 340.18,-20.039 392.47,-21.097 l 9.35,-0.231 c 15.3,-0.39 40.9,-1.062 71.59,-1.062 220.99,0 296.45,34.601 330.53,54.16 37.09,21.281 75.99,51.672 72.95,72.941 -4.43,30.981 -82.06,28.571 -111.13,33.289 -115.63,18.711 -215.3,64.582 -286.92,115.192 -82.07,57.969 -133.76,160.437 -133.76,160.437 l -54.23,-36 C 2356.33,668.66 2192.22,607.262 2038.42,607.25 c -7.92,0 -15.91,0.172 -23.76,0.512 -88.59,3.84 -156.92,39.988 -176.22,72.047 l -35.73,59.339 -52.42,-45.269 c -70.34,-60.77 -168.65,-79.039 -207.66,-84.09 -17.21,-2.23 -34.65,-3.348 -51.84,-3.348 -89.67,0 -171.22,30.149 -229.62,84.911 -8.62,8.07 -40.38,45.339 -46.09,53.648 l -37.34,54.238 -49.64,-43.187 c -17.46,-15.422 -71.84,-49.242 -82.8,-55.16 C 932.172,639.809 807.059,607.52 683.516,607.52 572.184,607.52 465.59,634.859 375.25,686.602 160.797,809.461 128.305,1049.31 138.805,1228.89 c 14.367,245.17 103.711,490.07 265.535,727.88 139.539,205.05 332.066,401.07 556.781,566.88 163.659,120.76 414.069,273.4 677.499,314.78 46.35,7.28 95.6,14.38 143.45,14.38 54.09,0 94.61,-9.04 123.85,-27.68 78.9,-50.23 81.14,-148.82 75.45,-203.13 -20.94,-199.46 -205.32,-440.41 -402.9,-440.42 -36.53,0.03 -69.15,14.25 -87.55,37.99 -14.46,18.66 -18.46,41.09 -11.9,66.64 16.73,65.15 78.12,86.52 177.26,113.95 7.97,2.2 15.87,4.39 23.65,6.61 158.01,44.97 183.42,143.31 176.93,217.88 -4.4,50.65 -40.03,104.77 -126.83,104.77 -81.54,0 -179.3,-47.7 -190.17,-53.13 -215.94,-107.96 -360.72,-286.31 -502.1,-475.04 -291.295,-388.87 -428.1,-761.37 -406.647,-1107.22 9.43,-151.96 114.45,-315.948 267.672,-315.948 51.922,0 103.485,18.777 153.265,55.828 79.92,59.461 125.04,151.399 164.88,232.5 11.03,22.48 21.46,43.73 32.24,63.67 60.24,111.24 131.84,210.83 219.52,292.87 96.75,90.51 198.39,148.35 310.01,184.79 59.58,19.46 113.01,27.81 178.71,26.75 61.95,-1 94.83,-40.12 109.42,-65.65 10.94,21.28 27.96,58.96 34.65,64.43 6.13,5.02 112.62,4.52 145.88,3.04 27.36,-1.22 112,-0.81 122.18,-11.85 12.02,-13.04 -21.88,-83.89 -59.47,-184.61 -17.44,-46.74 -43.1,-103.33 -69.77,-172.89 -10.38,-27.07 -20.97,-54.04 -31.32,-80.47 -84.84,-216.388 -140.88,-359.361 -46.78,-408.029 18.36,-9.5 38.82,-14.313 60.83,-14.313 67.28,0 134.73,45.133 183.98,78.082 5.76,3.84 11.19,7.481 16.24,10.77 57.65,37.57 90.42,60.762 120.68,91.039 l 18.83,18.801 -1.87,26.539 c -16.87,240.051 17.77,501.661 90.37,682.761 100.86,251.64 248.53,479.12 427.02,657.84 89.48,89.61 314.23,252.34 437.71,255.21 104.55,2.43 75.17,-181.67 65.65,-224.9 -20.67,-93.91 -130.75,-385.72 -310.21,-684.83 -60.62,-101.04 -192.69,-283.02 -280.07,-403.44 -41.19,-56.78 -73.73,-101.61 -88.02,-123.05 l -8.32,-12.47 -1.28,-14.95 c -12.11,-142.581 61.73,-288.05 140.29,-368.98 73.66,-75.89 151.67,-103.308 227.1,-129.832 25.85,-9.09 52.59,-18.476 79.66,-29.937 23.26,-9.84 52.18,-26.281 57.87,-48.731 5.62,-22.172 -8.82,-56.941 -39.6,-95.41 -156.84,-195.969 -358.03,-258.07 -552.09,-295.988 -111.61,-21.813 -247.28,-32.41 -414.77,-32.43 -112.73,0 -225.06,4.528 -333.69,8.906 -41.33,1.672 -81.75,3.293 -120.89,4.622 -124.54,4.199 -261.2,12.21 -393.37,19.949 -116.06,6.801 -236.06,13.84 -346.76,18.222 -87.73,3.481 -172.33,5.231 -251.451,5.231 -215.984,0 -401.758,-13.082 -552.152,-38.852 C 325.969,126.66 267.285,111.422 210.527,96.6602 193.969,92.3398 177.508,88.0586 160.984,83.9219 153.785,82.1211 145.113,79.4688 135.063,76.4102 114.258,70.0586 81.5938,60.1211 57.2383,57.2305 v 0"
         style="fill:#15213b;fill-opacity:1;fill-rule:nonzero;stroke:none"
         id="path16" />
    </g>
  </g>
</svg>
